<?xml version="1.0" standalone="no"?>
<!DOCTYPE svg PUBLIC "-//W3C//DTD SVG 20010904//EN"
 "http://www.w3.org/TR/2001/REC-SVG-20010904/DTD/svg10.dtd">
<svg version="1.0" xmlns="http://www.w3.org/2000/svg"
 width="512.000000pt" height="512.000000pt" viewBox="0 0 512.000000 512.000000"
 preserveAspectRatio="xMidYMid meet">

<g transform="translate(0.000000,512.000000) scale(0.100000,-0.100000)"
fill="#000000" stroke="none">
<path d="M2330 5110 c-494 -48 -950 -230 -1350 -538 -195 -150 -448 -432 -594
-662 -63 -99 -186 -351 -230 -471 -49 -134 -102 -340 -128 -499 -31 -195 -31
-565 0 -760 45 -276 116 -498 237 -745 132 -269 269 -460 489 -681 221 -220
412 -357 681 -489 247 -121 469 -192 745 -237 195 -31 565 -31 760 0 276 45
498 116 745 237 269 132 460 269 681 489 220 221 357 412 489 681 88 179 132
296 180 476 63 240 78 371 78 649 0 278 -15 409 -78 649 -48 180 -92 297 -180
476 -132 269 -269 460 -489 681 -221 220 -412 357 -681 489 -246 121 -474 193
-740 235 -147 23 -475 34 -615 20z m470 -280 c474 -56 889 -236 1247 -542 790
-675 1020 -1814 556 -2742 -288 -576 -799 -1001 -1416 -1180 -398 -115 -856
-115 -1254 0 -622 180 -1130 606 -1418 1189 -154 310 -221 581 -232 931 -6
205 4 344 38 516 191 961 977 1695 1954 1823 122 16 410 19 525 5z"/>
<path d="M1645 3399 c-120 -27 -203 -123 -213 -245 -13 -166 109 -297 276
-296 109 1 190 53 245 156 32 61 31 174 -3 239 -56 110 -188 174 -305 146z"/>
<path d="M3347 3396 c-27 -7 -67 -26 -90 -42 -216 -152 -109 -494 155 -496
167 -1 289 130 276 296 -10 125 -93 218 -216 245 -63 13 -64 13 -125 -3z"/>
<path d="M1860 2270 c-96 -29 -153 -56 -280 -139 -146 -94 -268 -156 -350
-177 -87 -22 -210 -15 -309 18 l-73 25 6 -43 c16 -119 101 -289 203 -409 70
-82 197 -187 304 -251 287 -172 628 -206 865 -86 154 78 264 196 306 329 13
40 25 73 28 73 3 0 15 -33 28 -73 42 -133 152 -251 306 -329 194 -98 465 -94
718 11 160 67 343 199 451 326 102 120 187 290 203 409 l6 43 -73 -25 c-99
-33 -222 -40 -309 -18 -82 21 -204 83 -350 178 -182 118 -294 158 -437 158
-155 0 -257 -44 -373 -160 -80 -80 -130 -165 -153 -259 -6 -28 -14 -51 -17
-51 -3 0 -11 23 -17 51 -23 94 -73 179 -153 259 -82 82 -146 121 -235 145 -80
20 -214 18 -295 -5z"/>
</g>
</svg>
